<mxfile host="Electron" modified="2024-01-23T23:19:24.864Z" agent="Mozilla/5.0 (Windows NT 10.0; Win64; x64) AppleWebKit/537.36 (KHTML, like Gecko) draw.io/21.6.5 Chrome/114.0.5735.243 Electron/25.3.1 Safari/537.36" etag="bQgwIvSxPPURh6z4Wpdl" version="21.6.5" type="device">
  <diagram name="Страница 1" id="NUIicUsA8fGVGg_YlnTr">
    <mxGraphModel dx="1098" dy="828" grid="1" gridSize="10" guides="1" tooltips="1" connect="1" arrows="1" fold="1" page="1" pageScale="1" pageWidth="827" pageHeight="1169" math="0" shadow="0">
      <root>
        <mxCell id="0" />
        <mxCell id="1" parent="0" />
        <mxCell id="Vod4WRzdx6ztfvPipmfG-4" style="edgeStyle=orthogonalEdgeStyle;rounded=0;orthogonalLoop=1;jettySize=auto;html=1;entryX=0.5;entryY=0;entryDx=0;entryDy=0;" edge="1" parent="1" source="Vod4WRzdx6ztfvPipmfG-1" target="Vod4WRzdx6ztfvPipmfG-2">
          <mxGeometry relative="1" as="geometry" />
        </mxCell>
        <mxCell id="Vod4WRzdx6ztfvPipmfG-1" value="Begin" style="rounded=1;whiteSpace=wrap;html=1;" vertex="1" parent="1">
          <mxGeometry x="320" y="40" width="160" height="80" as="geometry" />
        </mxCell>
        <mxCell id="Vod4WRzdx6ztfvPipmfG-5" style="edgeStyle=orthogonalEdgeStyle;rounded=0;orthogonalLoop=1;jettySize=auto;html=1;entryX=0.5;entryY=0;entryDx=0;entryDy=0;" edge="1" parent="1" source="Vod4WRzdx6ztfvPipmfG-2" target="Vod4WRzdx6ztfvPipmfG-3">
          <mxGeometry relative="1" as="geometry" />
        </mxCell>
        <mxCell id="Vod4WRzdx6ztfvPipmfG-2" value="int count&lt;br&gt;string[] array&lt;br&gt;string[] preresult&lt;br&gt;string[] result" style="shape=parallelogram;perimeter=parallelogramPerimeter;whiteSpace=wrap;html=1;fixedSize=1;" vertex="1" parent="1">
          <mxGeometry x="320" y="160" width="160" height="80" as="geometry" />
        </mxCell>
        <mxCell id="Vod4WRzdx6ztfvPipmfG-7" style="edgeStyle=orthogonalEdgeStyle;rounded=0;orthogonalLoop=1;jettySize=auto;html=1;entryX=0.5;entryY=0;entryDx=0;entryDy=0;" edge="1" parent="1" source="Vod4WRzdx6ztfvPipmfG-3" target="Vod4WRzdx6ztfvPipmfG-6">
          <mxGeometry relative="1" as="geometry" />
        </mxCell>
        <mxCell id="Vod4WRzdx6ztfvPipmfG-3" value="count = 0&lt;br&gt;preresult = new&amp;nbsp;&lt;br&gt;result = preresult&lt;br&gt;string[count]" style="rounded=0;whiteSpace=wrap;html=1;" vertex="1" parent="1">
          <mxGeometry x="320" y="280" width="160" height="80" as="geometry" />
        </mxCell>
        <mxCell id="Vod4WRzdx6ztfvPipmfG-15" style="edgeStyle=orthogonalEdgeStyle;rounded=0;orthogonalLoop=1;jettySize=auto;html=1;entryX=0.5;entryY=0;entryDx=0;entryDy=0;fillColor=#a20025;strokeColor=#6F0000;" edge="1" parent="1" source="Vod4WRzdx6ztfvPipmfG-6" target="Vod4WRzdx6ztfvPipmfG-13">
          <mxGeometry relative="1" as="geometry">
            <Array as="points">
              <mxPoint x="600" y="440" />
              <mxPoint x="600" y="1120" />
              <mxPoint x="400" y="1120" />
            </Array>
          </mxGeometry>
        </mxCell>
        <mxCell id="Vod4WRzdx6ztfvPipmfG-16" value="NO" style="edgeLabel;html=1;align=center;verticalAlign=middle;resizable=0;points=[];" vertex="1" connectable="0" parent="Vod4WRzdx6ztfvPipmfG-15">
          <mxGeometry x="-0.1769" y="-3" relative="1" as="geometry">
            <mxPoint as="offset" />
          </mxGeometry>
        </mxCell>
        <mxCell id="Vod4WRzdx6ztfvPipmfG-20" style="edgeStyle=orthogonalEdgeStyle;rounded=0;orthogonalLoop=1;jettySize=auto;html=1;entryX=0.5;entryY=0;entryDx=0;entryDy=0;fillColor=#008a00;strokeColor=#005700;" edge="1" parent="1" source="Vod4WRzdx6ztfvPipmfG-6" target="Vod4WRzdx6ztfvPipmfG-8">
          <mxGeometry relative="1" as="geometry" />
        </mxCell>
        <mxCell id="Vod4WRzdx6ztfvPipmfG-21" value="YES" style="edgeLabel;html=1;align=center;verticalAlign=middle;resizable=0;points=[];" vertex="1" connectable="0" parent="Vod4WRzdx6ztfvPipmfG-20">
          <mxGeometry x="-0.15" relative="1" as="geometry">
            <mxPoint as="offset" />
          </mxGeometry>
        </mxCell>
        <mxCell id="Vod4WRzdx6ztfvPipmfG-6" value="i = 0;&lt;br&gt;i &amp;lt; array.length;&lt;br&gt;i ++;" style="rhombus;whiteSpace=wrap;html=1;" vertex="1" parent="1">
          <mxGeometry x="320" y="400" width="160" height="80" as="geometry" />
        </mxCell>
        <mxCell id="Vod4WRzdx6ztfvPipmfG-22" style="edgeStyle=orthogonalEdgeStyle;rounded=0;orthogonalLoop=1;jettySize=auto;html=1;entryX=0.5;entryY=0;entryDx=0;entryDy=0;fillColor=#008a00;strokeColor=#005700;" edge="1" parent="1" source="Vod4WRzdx6ztfvPipmfG-8" target="Vod4WRzdx6ztfvPipmfG-9">
          <mxGeometry relative="1" as="geometry" />
        </mxCell>
        <mxCell id="Vod4WRzdx6ztfvPipmfG-23" value="YES" style="edgeLabel;html=1;align=center;verticalAlign=middle;resizable=0;points=[];" vertex="1" connectable="0" parent="Vod4WRzdx6ztfvPipmfG-22">
          <mxGeometry x="-0.1" y="2" relative="1" as="geometry">
            <mxPoint as="offset" />
          </mxGeometry>
        </mxCell>
        <mxCell id="Vod4WRzdx6ztfvPipmfG-25" style="edgeStyle=orthogonalEdgeStyle;rounded=0;orthogonalLoop=1;jettySize=auto;html=1;entryX=0;entryY=0.5;entryDx=0;entryDy=0;exitX=0;exitY=0.5;exitDx=0;exitDy=0;fillColor=#a20025;strokeColor=#6F0000;" edge="1" parent="1" source="Vod4WRzdx6ztfvPipmfG-8" target="Vod4WRzdx6ztfvPipmfG-6">
          <mxGeometry relative="1" as="geometry">
            <Array as="points">
              <mxPoint x="280" y="560" />
              <mxPoint x="280" y="440" />
            </Array>
          </mxGeometry>
        </mxCell>
        <mxCell id="Vod4WRzdx6ztfvPipmfG-26" value="NO" style="edgeLabel;html=1;align=center;verticalAlign=middle;resizable=0;points=[];" vertex="1" connectable="0" parent="Vod4WRzdx6ztfvPipmfG-25">
          <mxGeometry x="-0.23" relative="1" as="geometry">
            <mxPoint as="offset" />
          </mxGeometry>
        </mxCell>
        <mxCell id="Vod4WRzdx6ztfvPipmfG-8" value="array[i].Length &amp;lt;= 3 :" style="rhombus;whiteSpace=wrap;html=1;" vertex="1" parent="1">
          <mxGeometry x="320" y="520" width="160" height="80" as="geometry" />
        </mxCell>
        <mxCell id="Vod4WRzdx6ztfvPipmfG-24" style="edgeStyle=orthogonalEdgeStyle;rounded=0;orthogonalLoop=1;jettySize=auto;html=1;entryX=0.5;entryY=0;entryDx=0;entryDy=0;fillColor=#1ba1e2;strokeColor=#006EAF;" edge="1" parent="1" source="Vod4WRzdx6ztfvPipmfG-9" target="Vod4WRzdx6ztfvPipmfG-10">
          <mxGeometry relative="1" as="geometry" />
        </mxCell>
        <mxCell id="Vod4WRzdx6ztfvPipmfG-9" value="count++&lt;br&gt;preresult = new string[count]" style="rounded=0;whiteSpace=wrap;html=1;" vertex="1" parent="1">
          <mxGeometry x="320" y="640" width="160" height="80" as="geometry" />
        </mxCell>
        <mxCell id="Vod4WRzdx6ztfvPipmfG-17" style="edgeStyle=orthogonalEdgeStyle;rounded=0;orthogonalLoop=1;jettySize=auto;html=1;entryX=0.5;entryY=0;entryDx=0;entryDy=0;fillColor=#a20025;strokeColor=#6F0000;" edge="1" parent="1" source="Vod4WRzdx6ztfvPipmfG-10" target="Vod4WRzdx6ztfvPipmfG-12">
          <mxGeometry relative="1" as="geometry">
            <Array as="points">
              <mxPoint x="520" y="800" />
              <mxPoint x="520" y="980" />
              <mxPoint x="400" y="980" />
            </Array>
          </mxGeometry>
        </mxCell>
        <mxCell id="Vod4WRzdx6ztfvPipmfG-18" value="NO" style="edgeLabel;html=1;align=center;verticalAlign=middle;resizable=0;points=[];" vertex="1" connectable="0" parent="Vod4WRzdx6ztfvPipmfG-17">
          <mxGeometry x="-0.2278" y="-2" relative="1" as="geometry">
            <mxPoint as="offset" />
          </mxGeometry>
        </mxCell>
        <mxCell id="Vod4WRzdx6ztfvPipmfG-27" style="edgeStyle=orthogonalEdgeStyle;rounded=0;orthogonalLoop=1;jettySize=auto;html=1;entryX=0.5;entryY=0;entryDx=0;entryDy=0;fillColor=#008a00;strokeColor=#005700;" edge="1" parent="1" source="Vod4WRzdx6ztfvPipmfG-10" target="Vod4WRzdx6ztfvPipmfG-11">
          <mxGeometry relative="1" as="geometry" />
        </mxCell>
        <mxCell id="Vod4WRzdx6ztfvPipmfG-28" value="YES" style="edgeLabel;html=1;align=center;verticalAlign=middle;resizable=0;points=[];" vertex="1" connectable="0" parent="Vod4WRzdx6ztfvPipmfG-27">
          <mxGeometry x="-0.35" y="-2" relative="1" as="geometry">
            <mxPoint as="offset" />
          </mxGeometry>
        </mxCell>
        <mxCell id="Vod4WRzdx6ztfvPipmfG-10" value="int j = 0;&lt;br&gt;j &amp;lt; preresult.Length - 1;&lt;br&gt;j ++;" style="rhombus;whiteSpace=wrap;html=1;" vertex="1" parent="1">
          <mxGeometry x="320" y="760" width="160" height="80" as="geometry" />
        </mxCell>
        <mxCell id="Vod4WRzdx6ztfvPipmfG-29" style="edgeStyle=orthogonalEdgeStyle;rounded=0;orthogonalLoop=1;jettySize=auto;html=1;entryX=0;entryY=0.5;entryDx=0;entryDy=0;exitX=0;exitY=0.5;exitDx=0;exitDy=0;fillColor=#1ba1e2;strokeColor=#006EAF;" edge="1" parent="1" source="Vod4WRzdx6ztfvPipmfG-11" target="Vod4WRzdx6ztfvPipmfG-10">
          <mxGeometry relative="1" as="geometry">
            <Array as="points">
              <mxPoint x="280" y="920" />
              <mxPoint x="280" y="800" />
            </Array>
          </mxGeometry>
        </mxCell>
        <mxCell id="Vod4WRzdx6ztfvPipmfG-11" value="preresult[j] = result[j];" style="rounded=0;whiteSpace=wrap;html=1;" vertex="1" parent="1">
          <mxGeometry x="320" y="880" width="160" height="80" as="geometry" />
        </mxCell>
        <mxCell id="Vod4WRzdx6ztfvPipmfG-19" style="edgeStyle=orthogonalEdgeStyle;rounded=0;orthogonalLoop=1;jettySize=auto;html=1;entryX=0;entryY=0;entryDx=0;entryDy=0;exitX=0.5;exitY=1;exitDx=0;exitDy=0;fillColor=#1ba1e2;strokeColor=#006EAF;" edge="1" parent="1" source="Vod4WRzdx6ztfvPipmfG-12" target="Vod4WRzdx6ztfvPipmfG-6">
          <mxGeometry relative="1" as="geometry">
            <Array as="points">
              <mxPoint x="400" y="1100" />
              <mxPoint x="200" y="1100" />
              <mxPoint x="200" y="400" />
              <mxPoint x="360" y="400" />
            </Array>
          </mxGeometry>
        </mxCell>
        <mxCell id="Vod4WRzdx6ztfvPipmfG-12" value="preresult[j] = result[j];" style="rounded=0;whiteSpace=wrap;html=1;" vertex="1" parent="1">
          <mxGeometry x="320" y="1000" width="160" height="80" as="geometry" />
        </mxCell>
        <mxCell id="Vod4WRzdx6ztfvPipmfG-13" value="print (result);" style="shape=document;whiteSpace=wrap;html=1;boundedLbl=1;" vertex="1" parent="1">
          <mxGeometry x="320" y="1160" width="160" height="80" as="geometry" />
        </mxCell>
        <mxCell id="Vod4WRzdx6ztfvPipmfG-14" value="End." style="rounded=1;whiteSpace=wrap;html=1;" vertex="1" parent="1">
          <mxGeometry x="320" y="1280" width="160" height="80" as="geometry" />
        </mxCell>
      </root>
    </mxGraphModel>
  </diagram>
</mxfile>
